<svg id="visual" viewBox="0 0 960 540" width="960" height="540" xmlns="http://www.w3.org/2000/svg" xmlns:xlink="http://www.w3.org/1999/xlink" version="1.1"><path d="M0 116L26.7 121.5C53.3 127 106.7 138 160 139.3C213.3 140.7 266.7 132.3 320 124.7C373.3 117 426.7 110 480 111.8C533.3 113.7 586.7 124.3 640 132.7C693.3 141 746.7 147 800 148.5C853.3 150 906.7 147 933.3 145.5L960 144L960 0L933.3 0C906.7 0 853.3 0 800 0C746.7 0 693.3 0 640 0C586.7 0 533.3 0 480 0C426.7 0 373.3 0 320 0C266.7 0 213.3 0 160 0C106.7 0 53.3 0 26.7 0L0 0Z" fill="#7981da"></path><path d="M0 119L26.7 120.2C53.3 121.3 106.7 123.7 160 117.3C213.3 111 266.7 96 320 88.3C373.3 80.7 426.7 80.3 480 82.3C533.3 84.3 586.7 88.7 640 92.7C693.3 96.7 746.7 100.3 800 102.3C853.3 104.3 906.7 104.7 933.3 104.8L960 105L960 0L933.3 0C906.7 0 853.3 0 800 0C746.7 0 693.3 0 640 0C586.7 0 533.3 0 480 0C426.7 0 373.3 0 320 0C266.7 0 213.3 0 160 0C106.7 0 53.3 0 26.7 0L0 0Z" fill="#888fe2"></path><path d="M0 109L26.7 106.7C53.3 104.3 106.7 99.7 160 94C213.3 88.3 266.7 81.7 320 75.8C373.3 70 426.7 65 480 67.5C533.3 70 586.7 80 640 85.8C693.3 91.7 746.7 93.3 800 87.8C853.3 82.3 906.7 69.7 933.3 63.3L960 57L960 0L933.3 0C906.7 0 853.3 0 800 0C746.7 0 693.3 0 640 0C586.7 0 533.3 0 480 0C426.7 0 373.3 0 320 0C266.7 0 213.3 0 160 0C106.7 0 53.3 0 26.7 0L0 0Z" fill="#979eea"></path><path d="M0 38L26.7 38.8C53.3 39.7 106.7 41.3 160 42.7C213.3 44 266.7 45 320 47.8C373.3 50.7 426.7 55.3 480 58.5C533.3 61.7 586.7 63.3 640 59.3C693.3 55.3 746.7 45.7 800 42C853.3 38.3 906.7 40.7 933.3 41.8L960 43L960 0L933.3 0C906.7 0 853.3 0 800 0C746.7 0 693.3 0 640 0C586.7 0 533.3 0 480 0C426.7 0 373.3 0 320 0C266.7 0 213.3 0 160 0C106.7 0 53.3 0 26.7 0L0 0Z" fill="#a6adf2"></path><path d="M0 24L26.7 28.7C53.3 33.3 106.7 42.7 160 46.2C213.3 49.7 266.7 47.3 320 47C373.3 46.7 426.7 48.3 480 46.7C533.3 45 586.7 40 640 38C693.3 36 746.7 37 800 35.5C853.3 34 906.7 30 933.3 28L960 26L960 0L933.3 0C906.7 0 853.3 0 800 0C746.7 0 693.3 0 640 0C586.7 0 533.3 0 480 0C426.7 0 373.3 0 320 0C266.7 0 213.3 0 160 0C106.7 0 53.3 0 26.7 0L0 0Z" fill="#b6bcfa"></path></svg>