<svg id="visual" viewBox="0 0 1500 500" width="1500" height="500" xmlns="http://www.w3.org/2000/svg" xmlns:xlink="http://www.w3.org/1999/xlink" version="1.1"><path d="M0 279L35.7 287.2C71.3 295.3 142.7 311.7 214.2 313.2C285.7 314.7 357.3 301.3 428.8 279.2C500.3 257 571.7 226 643 220.2C714.3 214.3 785.7 233.7 857 237.5C928.3 241.3 999.7 229.7 1071.2 229.5C1142.7 229.3 1214.3 240.7 1285.8 238.3C1357.3 236 1428.7 220 1464.3 212L1500 204L1500 501L1464.3 501C1428.7 501 1357.3 501 1285.8 501C1214.3 501 1142.7 501 1071.2 501C999.7 501 928.3 501 857 501C785.7 501 714.3 501 643 501C571.7 501 500.3 501 428.8 501C357.3 501 285.7 501 214.2 501C142.7 501 71.3 501 35.7 501L0 501Z" fill="#7981da"></path><path d="M0 237L35.7 233.8C71.3 230.7 142.7 224.3 214.2 226.7C285.7 229 357.3 240 428.8 250.7C500.3 261.3 571.7 271.7 643 272.8C714.3 274 785.7 266 857 276.8C928.3 287.7 999.7 317.3 1071.2 313C1142.7 308.7 1214.3 270.3 1285.8 259.7C1357.3 249 1428.7 266 1464.3 274.5L1500 283L1500 501L1464.3 501C1428.7 501 1357.3 501 1285.8 501C1214.3 501 1142.7 501 1071.2 501C999.7 501 928.3 501 857 501C785.7 501 714.3 501 643 501C571.7 501 500.3 501 428.8 501C357.3 501 285.7 501 214.2 501C142.7 501 71.3 501 35.7 501L0 501Z" fill="#8289df"></path><path d="M0 331L35.7 328.8C71.3 326.7 142.7 322.3 214.2 315.3C285.7 308.3 357.3 298.7 428.8 289.8C500.3 281 571.7 273 643 280.7C714.3 288.3 785.7 311.7 857 314.5C928.3 317.3 999.7 299.7 1071.2 287C1142.7 274.3 1214.3 266.7 1285.8 272C1357.3 277.3 1428.7 295.7 1464.3 304.8L1500 314L1500 501L1464.3 501C1428.7 501 1357.3 501 1285.8 501C1214.3 501 1142.7 501 1071.2 501C999.7 501 928.3 501 857 501C785.7 501 714.3 501 643 501C571.7 501 500.3 501 428.8 501C357.3 501 285.7 501 214.2 501C142.7 501 71.3 501 35.7 501L0 501Z" fill="#8a91e3"></path><path d="M0 364L35.7 368.2C71.3 372.3 142.7 380.7 214.2 385.3C285.7 390 357.3 391 428.8 386.7C500.3 382.3 571.7 372.7 643 355.7C714.3 338.7 785.7 314.3 857 307.2C928.3 300 999.7 310 1071.2 322.3C1142.7 334.7 1214.3 349.3 1285.8 350C1357.3 350.7 1428.7 337.3 1464.3 330.7L1500 324L1500 501L1464.3 501C1428.7 501 1357.3 501 1285.8 501C1214.3 501 1142.7 501 1071.2 501C999.7 501 928.3 501 857 501C785.7 501 714.3 501 643 501C571.7 501 500.3 501 428.8 501C357.3 501 285.7 501 214.2 501C142.7 501 71.3 501 35.7 501L0 501Z" fill="#939ae8"></path><path d="M0 378L35.7 376.2C71.3 374.3 142.7 370.7 214.2 364C285.7 357.3 357.3 347.7 428.8 343.7C500.3 339.7 571.7 341.3 643 353.2C714.3 365 785.7 387 857 389.7C928.3 392.3 999.7 375.7 1071.2 376.2C1142.7 376.7 1214.3 394.3 1285.8 396.3C1357.3 398.3 1428.7 384.7 1464.3 377.8L1500 371L1500 501L1464.3 501C1428.7 501 1357.3 501 1285.8 501C1214.3 501 1142.7 501 1071.2 501C999.7 501 928.3 501 857 501C785.7 501 714.3 501 643 501C571.7 501 500.3 501 428.8 501C357.3 501 285.7 501 214.2 501C142.7 501 71.3 501 35.7 501L0 501Z" fill="#9ba2ec"></path><path d="M0 384L35.7 380.8C71.3 377.7 142.7 371.3 214.2 374.2C285.7 377 357.3 389 428.8 393C500.3 397 571.7 393 643 392.5C714.3 392 785.7 395 857 398.3C928.3 401.7 999.7 405.3 1071.2 399.8C1142.7 394.3 1214.3 379.7 1285.8 376.2C1357.3 372.7 1428.7 380.3 1464.3 384.2L1500 388L1500 501L1464.3 501C1428.7 501 1357.3 501 1285.8 501C1214.3 501 1142.7 501 1071.2 501C999.7 501 928.3 501 857 501C785.7 501 714.3 501 643 501C571.7 501 500.3 501 428.8 501C357.3 501 285.7 501 214.2 501C142.7 501 71.3 501 35.7 501L0 501Z" fill="#a4abf1"></path><path d="M0 413L35.7 419.7C71.3 426.3 142.7 439.7 214.2 442.5C285.7 445.3 357.3 437.7 428.8 429.2C500.3 420.7 571.7 411.3 643 412.7C714.3 414 785.7 426 857 425.3C928.3 424.7 999.7 411.3 1071.2 412C1142.7 412.7 1214.3 427.3 1285.8 430.2C1357.3 433 1428.7 424 1464.3 419.5L1500 415L1500 501L1464.3 501C1428.7 501 1357.3 501 1285.8 501C1214.3 501 1142.7 501 1071.2 501C999.7 501 928.3 501 857 501C785.7 501 714.3 501 643 501C571.7 501 500.3 501 428.8 501C357.3 501 285.7 501 214.2 501C142.7 501 71.3 501 35.7 501L0 501Z" fill="#adb3f5"></path><path d="M0 435L35.7 441.5C71.3 448 142.7 461 214.2 466.3C285.7 471.7 357.3 469.3 428.8 467.7C500.3 466 571.7 465 643 466C714.3 467 785.7 470 857 470.8C928.3 471.7 999.7 470.3 1071.2 466.7C1142.7 463 1214.3 457 1285.8 452.5C1357.3 448 1428.7 445 1464.3 443.5L1500 442L1500 501L1464.3 501C1428.7 501 1357.3 501 1285.8 501C1214.3 501 1142.7 501 1071.2 501C999.7 501 928.3 501 857 501C785.7 501 714.3 501 643 501C571.7 501 500.3 501 428.8 501C357.3 501 285.7 501 214.2 501C142.7 501 71.3 501 35.7 501L0 501Z" fill="#b6bcfa"></path></svg>