<svg id="visual" viewBox="0 0 1500 200" width="1500" height="200" xmlns="http://www.w3.org/2000/svg" xmlns:xlink="http://www.w3.org/1999/xlink" version="1.1"><path d="M0 89L35.7 93.2C71.3 97.3 142.7 105.7 214.2 106.5C285.7 107.3 357.3 100.7 428.8 89.5C500.3 78.3 571.7 62.7 643 59.7C714.3 56.7 785.7 66.3 857 68.2C928.3 70 999.7 64 1071.2 63.8C1142.7 63.7 1214.3 69.3 1285.8 68.2C1357.3 67 1428.7 59 1464.3 55L1500 51L1500 201L1464.3 201C1428.7 201 1357.3 201 1285.8 201C1214.3 201 1142.7 201 1071.2 201C999.7 201 928.3 201 857 201C785.7 201 714.3 201 643 201C571.7 201 500.3 201 428.8 201C357.3 201 285.7 201 214.2 201C142.7 201 71.3 201 35.7 201L0 201Z" fill="#7981da"></path><path d="M0 68L35.7 66.3C71.3 64.7 142.7 61.3 214.2 62.5C285.7 63.7 357.3 69.3 428.8 74.8C500.3 80.3 571.7 85.7 643 86.3C714.3 87 785.7 83 857 88.3C928.3 93.7 999.7 108.3 1071.2 106C1142.7 103.7 1214.3 84.3 1285.8 79C1357.3 73.7 1428.7 82.3 1464.3 86.7L1500 91L1500 201L1464.3 201C1428.7 201 1357.3 201 1285.8 201C1214.3 201 1142.7 201 1071.2 201C999.7 201 928.3 201 857 201C785.7 201 714.3 201 643 201C571.7 201 500.3 201 428.8 201C357.3 201 285.7 201 214.2 201C142.7 201 71.3 201 35.7 201L0 201Z" fill="#8289df"></path><path d="M0 115L35.7 113.8C71.3 112.7 142.7 110.3 214.2 106.8C285.7 103.3 357.3 98.7 428.8 94.3C500.3 90 571.7 86 643 89.8C714.3 93.7 785.7 105.3 857 106.8C928.3 108.3 999.7 99.7 1071.2 93.3C1142.7 87 1214.3 83 1285.8 85.5C1357.3 88 1428.7 97 1464.3 101.5L1500 106L1500 201L1464.3 201C1428.7 201 1357.3 201 1285.8 201C1214.3 201 1142.7 201 1071.2 201C999.7 201 928.3 201 857 201C785.7 201 714.3 201 643 201C571.7 201 500.3 201 428.8 201C357.3 201 285.7 201 214.2 201C142.7 201 71.3 201 35.7 201L0 201Z" fill="#8a91e3"></path><path d="M0 131L35.7 133.2C71.3 135.3 142.7 139.7 214.2 142C285.7 144.3 357.3 144.7 428.8 142.5C500.3 140.3 571.7 135.7 643 127.2C714.3 118.7 785.7 106.3 857 102.7C928.3 99 999.7 104 1071.2 110.2C1142.7 116.3 1214.3 123.7 1285.8 124.2C1357.3 124.7 1428.7 118.3 1464.3 115.2L1500 112L1500 201L1464.3 201C1428.7 201 1357.3 201 1285.8 201C1214.3 201 1142.7 201 1071.2 201C999.7 201 928.3 201 857 201C785.7 201 714.3 201 643 201C571.7 201 500.3 201 428.8 201C357.3 201 285.7 201 214.2 201C142.7 201 71.3 201 35.7 201L0 201Z" fill="#939ae8"></path><path d="M0 138L35.7 137.2C71.3 136.3 142.7 134.7 214.2 131.5C285.7 128.3 357.3 123.7 428.8 121.7C500.3 119.7 571.7 120.3 643 126.2C714.3 132 785.7 143 857 144.3C928.3 145.7 999.7 137.3 1071.2 137.5C1142.7 137.7 1214.3 146.3 1285.8 147.3C1357.3 148.3 1428.7 141.7 1464.3 138.3L1500 135L1500 201L1464.3 201C1428.7 201 1357.3 201 1285.8 201C1214.3 201 1142.7 201 1071.2 201C999.7 201 928.3 201 857 201C785.7 201 714.3 201 643 201C571.7 201 500.3 201 428.8 201C357.3 201 285.7 201 214.2 201C142.7 201 71.3 201 35.7 201L0 201Z" fill="#9ba2ec"></path><path d="M0 141L35.7 139.5C71.3 138 142.7 135 214.2 136.5C285.7 138 357.3 144 428.8 146C500.3 148 571.7 146 643 145.8C714.3 145.7 785.7 147.3 857 149C928.3 150.7 999.7 152.3 1071.2 149.5C1142.7 146.7 1214.3 139.3 1285.8 137.7C1357.3 136 1428.7 140 1464.3 142L1500 144L1500 201L1464.3 201C1428.7 201 1357.3 201 1285.8 201C1214.3 201 1142.7 201 1071.2 201C999.7 201 928.3 201 857 201C785.7 201 714.3 201 643 201C571.7 201 500.3 201 428.8 201C357.3 201 285.7 201 214.2 201C142.7 201 71.3 201 35.7 201L0 201Z" fill="#a4abf1"></path><path d="M0 156L35.7 159.3C71.3 162.7 142.7 169.3 214.2 170.8C285.7 172.3 357.3 168.7 428.8 164.5C500.3 160.3 571.7 155.7 643 156.2C714.3 156.7 785.7 162.3 857 162C928.3 161.7 999.7 155.3 1071.2 155.7C1142.7 156 1214.3 163 1285.8 164.3C1357.3 165.7 1428.7 161.3 1464.3 159.2L1500 157L1500 201L1464.3 201C1428.7 201 1357.3 201 1285.8 201C1214.3 201 1142.7 201 1071.2 201C999.7 201 928.3 201 857 201C785.7 201 714.3 201 643 201C571.7 201 500.3 201 428.8 201C357.3 201 285.7 201 214.2 201C142.7 201 71.3 201 35.7 201L0 201Z" fill="#adb3f5"></path><path d="M0 167L35.7 170.2C71.3 173.3 142.7 179.7 214.2 182.3C285.7 185 357.3 184 428.8 183.2C500.3 182.3 571.7 181.7 643 182.2C714.3 182.7 785.7 184.3 857 184.8C928.3 185.3 999.7 184.7 1071.2 182.8C1142.7 181 1214.3 178 1285.8 175.7C1357.3 173.3 1428.7 171.7 1464.3 170.8L1500 170L1500 201L1464.3 201C1428.7 201 1357.3 201 1285.8 201C1214.3 201 1142.7 201 1071.2 201C999.7 201 928.3 201 857 201C785.7 201 714.3 201 643 201C571.7 201 500.3 201 428.8 201C357.3 201 285.7 201 214.2 201C142.7 201 71.3 201 35.7 201L0 201Z" fill="#b6bcfa"></path></svg>